<?xml version="1.0" encoding="UTF-8"?>
<svg xmlns="http://www.w3.org/2000/svg" version="1.1" viewBox="0 0 1080 1080">
  <defs>
    <style>
      .cls-1 {
        fill-rule: evenodd;
      }
    </style>
  </defs>
  <!-- Generator: Adobe Illustrator 28.7.1, SVG Export Plug-In . SVG Version: 1.2.0 Build 142)  -->
  <g>
    <g id="_圖層_1" data-name="圖層_1">
      <path class="cls-1" d="M789.4,429.4l-.8-1-239.8-293.2c-2.3-2.8-5.6-4.2-8.9-4.2s-6.6,1.4-8.9,4.2l-239.8,293.2-.8,1c-44.1,54.8-70.5,124.4-70.5,200.1,0,176.4,143.3,319.5,320,319.5s320-143,320-319.5-26.4-145.4-70.5-200.1ZM588.1,296.1l121.7,148.8h0s21.4,26.2,21.4,26.2h0c33.8,42,54.1,95.3,54.1,153.4s-12.4,87.9-33.9,124.3c-69.1-39.9-111.3-84.5-135.5-117.2-14.6-19.7-24.3-37.2-30.5-50.2-5.5-11.6-8.4-24.3-8.4-37.1v-261.7l10.8,13.2c0,0,.1.2.2.2ZM348.7,471.1h0c0,0,21.4-26.2,21.4-26.2h0s121.7-148.8,121.7-148.8c0,0,.1-.2.2-.2l10.8-13.2v261.7c0,12.8-2.9,25.5-8.4,37.1-6.2,13-16,30.5-30.5,50.2-24.2,32.7-66.4,77.3-135.5,117.2-21.5-36.4-33.9-78.9-33.9-124.3s20.3-111.5,54.1-153.5ZM540,869.6s0,0,0,0c-63,0-120.4-23.7-163.8-62.6,75.5-45.5,123.6-96.9,153.5-139.6,5-7.1,15.6-7.1,20.6,0,30,42.7,78,94.1,153.5,139.6-43.4,38.9-100.8,62.6-163.8,62.6s0,0,0,0Z"/>
    </g>
  </g>
</svg>