<?xml version="1.0" encoding="UTF-8"?>
<svg xmlns="http://www.w3.org/2000/svg" version="1.1" viewBox="0 0 1080 1080">
  <defs>
    <style>
      .cls-1 {
        fill-rule: evenodd;
      }
    </style>
  </defs>
  <!-- Generator: Adobe Illustrator 28.7.1, SVG Export Plug-In . SVG Version: 1.2.0 Build 142)  -->
  <g>
    <g id="_圖層_1" data-name="圖層_1">
      <g>
        <path class="cls-1" d="M667.4,325.3l-.4-.5-121.7-148.8c-1.2-1.4-2.8-2.1-4.5-2.1s-3.3.7-4.5,2.1l-121.7,148.8-.4.5c-22.4,27.8-35.8,63.1-35.8,101.6,0,89.5,72.7,162.1,162.4,162.1s162.4-72.6,162.4-162.1-13.4-73.8-35.8-101.6ZM565.2,257.7l61.8,75.5h0s10.9,13.3,10.9,13.3h0c17.2,21.3,27.5,48.4,27.5,77.9s-6.3,44.6-17.2,63.1c-35.1-20.2-56.5-42.9-68.8-59.5-7.4-10-12.3-18.9-15.5-25.5-2.8-5.9-4.3-12.3-4.3-18.8v-132.8l5.5,6.7s0,0,0,.1ZM443.7,346.5h0s10.9-13.3,10.9-13.3h0s61.8-75.5,61.8-75.5c0,0,0,0,0-.1l5.5-6.7v132.8c0,6.5-1.5,13-4.3,18.8-3.2,6.6-8.1,15.5-15.5,25.5-12.3,16.6-33.7,39.2-68.8,59.5-10.9-18.5-17.2-40.1-17.2-63.1s10.3-56.6,27.5-77.9ZM540.8,548.7s0,0,0,0c-31.9,0-61.1-12-83.1-31.8,38.3-23.1,62.7-49.2,77.9-70.8,2.5-3.6,7.9-3.6,10.4,0,15.2,21.7,39.6,47.7,77.9,70.8-22,19.7-51.2,31.8-83.1,31.8s0,0,0,0Z"/>
        <g>
          <path d="M207.9,770.4l-2.7.7c-19.3-32.2-36.9-48-55.2-48s-25.7,9.7-25.7,24,22.3,28.7,45.3,40.1c24.3,12.4,49.8,27.7,49.8,63.4s-32.4,55.5-68.6,55.5-40.6-5-54-11.1l-6.4-50.5,2.5-.7c24,39.6,42.6,56.7,64.9,56.7s30.5-12.9,30.5-28.7-21-31.9-43.3-42.8c-25.3-12.6-50.8-26.5-50.8-59.7s32.9-51.7,68.1-51.7,27.5,2.2,39.1,5.9l6.7,47Z"/>
          <path d="M275,906.1c-21.3,0-33.4-15.6-33.4-39.4v-56.2c0-14.9-3.7-21-9.4-28v-.7h49v85.2c0,10.2,4.7,18.6,15.8,18.6s14.1-5.2,18.1-12.1v-63.1c0-14.9-3.5-21.3-9.4-28v-.5h49.3v69.1c0,27.7,3.5,34.4,12.4,43.3v.5l-51,11.1v-27l-.7-.2c-5.4,10.4-18.8,27.5-40.6,27.5Z"/>
          <path d="M380.4,901.9c3.5-12.1,6.2-22.5,6.2-43.1v-27.7c0-18.1-3.7-28.7-12.6-39.1v-1l52.2-14.4v82.2c0,20.3,2,30.9,5.9,43.1v.5h-51.7v-.5ZM402.7,761.8c-11.9,0-21.3-9.7-21.3-21.5s9.4-21.3,21.3-21.3,21.8,9.7,21.8,21.3-9.9,21.5-21.8,21.5Z"/>
          <path d="M455.4,871.7v-84.4h-13.9v-2.2l51-31.9h2.7v28.7h29.5v5.4h-29.5v83.4c0,14.9,7.9,19.6,17.8,19.6s13.9-4,14.1-4.2l.7.7c-5.4,9.7-18.8,19.3-38.4,19.3s-34.2-9.7-34.2-34.4Z"/>
          <path d="M539.4,901.9c3.5-12.1,6.2-22.5,6.2-43.1v-27.7c0-18.1-3.7-28.7-12.6-39.1v-1l52.2-14.4v82.2c0,20.3,2,30.9,5.9,43.1v.5h-51.7v-.5ZM561.7,761.8c-11.9,0-21.3-9.7-21.3-21.5s9.4-21.3,21.3-21.3,21.8,9.7,21.8,21.3-9.9,21.5-21.8,21.5Z"/>
          <path d="M603.8,902.4v-2l63.6-114.6-18.8,1c-13.1.5-25.7,17.8-40.6,32.9l-1.7-.5,10.2-37.4h95.3v2l-63.6,114.9,23-1c15.3-.5,26.5-14.6,43.1-37.9l1.7.5-9.9,42.1h-102.3Z"/>
          <path d="M787,906.1c-37.4,0-60.2-27.2-60.2-61.9s26.7-66.4,61.2-66.4,53.5,27.5,53,52.7l-73.8-.2c1.2,36.4,18.6,47.8,40.4,47.8s27.5-6.9,31.9-11.9l1.2.7c-6.7,23.3-25.5,39.1-53.7,39.1ZM767.2,825.4l35.2-.5v-9.4c0-23.3-6.2-33.2-15.8-33.2s-19.3,20.5-19.3,43.1Z"/>
          <path d="M910.3,902.4h-51.7v-.5c4-12.1,6.2-22,6.2-43.1l-.2-28c0-18.3-3.5-29-12.4-39.4v-.5l51.3-14.4v24.8l1,.2c6.7-10.4,19.6-23.8,41.6-23.8s37.1,13.4,37.1,34.4v46.3c0,21,1.7,31.2,5.9,43.3v.5h-51.7v-.5c4.2-12.1,5.9-22.8,5.9-42.8v-44.3c0-10.4-5.2-18.3-17.1-18.3s-17.1,5.4-21.8,12.1v50.3c0,20.5,2,30.9,5.9,43.1v.5Z"/>
        </g>
      </g>
    </g>
  </g>
</svg>